<?xml version="1.0" standalone="no"?>
<!DOCTYPE svg PUBLIC "-//W3C//DTD SVG 20010904//EN"
 "http://www.w3.org/TR/2001/REC-SVG-20010904/DTD/svg10.dtd">
<svg version="1.0" xmlns="http://www.w3.org/2000/svg"
 width="641.000000pt" height="254.000000pt" viewBox="0 0 641.000000 254.000000"
 preserveAspectRatio="xMidYMid meet">

<g transform="translate(0.000000,254.000000) scale(0.100000,-0.100000)"
fill="#ffffff" stroke="none">
<path d="M395 2302 c-68 -33 -127 -92 -159 -161 -21 -45 -21 -55 -21 -596 0
-541 0 -551 21 -596 32 -69 91 -128 159 -161 l60 -28 648 0 647 0 0 660 c0
644 0 661 -21 715 -28 74 -100 146 -174 174 -54 20 -73 21 -578 21 l-522 0
-60 -28z m1111 -168 c15 -11 37 -33 48 -48 21 -27 21 -37 21 -589 l0 -562
-190 0 -190 0 0 365 0 365 158 3 157 3 0 99 0 100 -425 0 -425 0 0 -100 0
-100 155 0 155 0 0 -371 0 -370 -242 3 c-238 3 -244 3 -277 27 -61 44 -61 40
-61 587 0 433 2 500 16 530 40 84 42 84 596 81 464 -2 477 -3 504 -23z"/>
<path d="M2242 1720 c-82 -11 -192 -48 -192 -64 0 -16 41 -139 49 -148 3 -3
38 2 76 12 136 36 256 17 288 -47 16 -31 32 -93 23 -93 -2 0 -35 7 -73 16 -90
21 -223 14 -290 -16 -98 -43 -143 -112 -143 -220 0 -159 115 -251 296 -237 73
5 114 21 171 63 17 13 33 24 35 24 2 0 3 -17 3 -37 l0 -38 103 0 103 0 0 270
c-1 209 -4 281 -15 320 -28 92 -91 155 -181 180 -67 19 -176 25 -253 15z m203
-454 c36 -10 40 -15 43 -46 6 -80 -73 -150 -170 -150 -54 0 -102 20 -118 49
-13 26 -13 77 1 103 26 49 151 72 244 44z"/>
<path d="M3288 1720 c-43 -13 -95 -48 -123 -83 l-25 -32 0 58 0 57 -110 0
-110 0 0 -395 0 -395 110 0 110 0 0 253 c0 232 2 254 20 284 25 41 68 63 125
63 37 0 52 -6 82 -33 35 -32 36 -36 44 -128 5 -52 8 -170 8 -264 l-1 -170 107
-3 106 -3 -3 313 c-3 299 -4 315 -25 353 -30 56 -80 101 -132 120 -46 16 -138
19 -183 5z"/>
<path d="M4228 1720 c-43 -13 -95 -48 -123 -83 l-25 -32 0 58 0 57 -110 0
-110 0 0 -395 0 -396 108 3 107 3 5 255 c4 184 9 261 18 278 21 37 72 62 125
62 40 0 53 -5 82 -32 48 -45 56 -96 54 -353 l-1 -210 107 -3 106 -3 -3 313
c-3 299 -4 315 -25 353 -30 56 -80 101 -132 120 -46 16 -138 19 -183 5z"/>
<path d="M5033 1715 c-178 -55 -287 -230 -270 -433 12 -147 88 -262 215 -324
64 -32 71 -33 192 -33 116 0 129 2 180 27 55 28 130 89 130 107 0 5 -27 33
-60 61 l-61 53 -22 -20 c-64 -59 -173 -79 -249 -45 -48 21 -92 70 -103 114
l-7 28 273 2 274 3 -2 73 c-5 194 -103 342 -257 387 -60 18 -176 18 -233 0z
m157 -165 c58 -16 120 -93 120 -148 0 -15 -17 -17 -165 -17 -148 0 -165 2
-165 17 0 50 63 133 114 147 42 12 55 13 96 1z"/>
<path d="M6069 1707 c-39 -21 -77 -61 -116 -123 -10 -16 -12 -6 -12 59 l-1 77
-110 0 -110 0 0 -395 0 -395 110 0 110 0 0 168 c0 191 14 266 59 322 38 47 79
69 140 77 l51 6 0 113 0 114 -38 0 c-22 0 -59 -10 -83 -23z"/>
<path d="M1153 559 c-41 -12 -63 -44 -63 -90 0 -45 30 -73 94 -89 70 -18 98
-32 106 -54 10 -29 -7 -63 -42 -77 -33 -14 -99 1 -131 29 -14 12 -20 13 -30 3
-29 -29 83 -78 152 -66 42 7 63 21 79 52 34 64 -2 111 -107 143 -84 25 -106
51 -78 94 23 35 67 41 121 17 37 -16 47 -17 56 -6 25 30 -94 63 -157 44z"/>
<path d="M2200 550 c0 -11 7 -20 15 -20 8 0 15 9 15 20 0 11 -7 20 -15 20 -8
0 -15 -9 -15 -20z"/>
<path d="M2610 550 c0 -13 7 -20 20 -20 13 0 20 7 20 20 0 13 -7 20 -20 20
-13 0 -20 -7 -20 -20z"/>
<path d="M3780 550 c0 -13 7 -20 20 -20 13 0 20 7 20 20 0 13 -7 20 -20 20
-13 0 -20 -7 -20 -20z"/>
<path d="M5090 550 c0 -13 7 -20 20 -20 13 0 20 7 20 20 0 13 -7 20 -20 20
-13 0 -20 -7 -20 -20z"/>
<path d="M3460 390 c0 -163 1 -170 20 -170 18 0 20 7 20 75 l0 75 95 0 c78 0
95 3 95 15 0 12 -17 15 -95 15 l-95 0 0 65 0 65 105 0 c87 0 105 3 105 15 0
13 -21 15 -125 15 l-125 0 0 -170z"/>
<path d="M1465 466 c-40 -17 -64 -55 -71 -108 -14 -112 107 -185 202 -123 37
24 16 42 -24 21 -46 -24 -80 -20 -113 13 -52 53 -42 61 71 61 l100 0 0 25 c0
85 -90 146 -165 111z m99 -41 c14 -13 26 -33 26 -45 0 -18 -6 -20 -80 -20 -92
0 -101 11 -51 61 36 35 69 37 105 4z"/>
<path d="M1815 473 c-11 -3 -35 -19 -53 -36 l-32 -31 6 32 c6 28 4 32 -15 32
-20 0 -21 -4 -21 -125 0 -118 1 -125 20 -125 18 0 20 7 20 71 0 84 19 124 67
141 21 8 33 19 33 30 0 10 -1 17 -2 17 -2 -1 -12 -3 -23 -6z"/>
<path d="M2405 473 c-57 -15 -95 -66 -95 -131 0 -106 125 -167 210 -102 19 14
22 22 13 31 -9 9 -18 7 -39 -10 -15 -11 -39 -21 -54 -21 -61 0 -112 78 -90
136 26 67 78 89 135 56 29 -18 35 -19 46 -6 9 11 4 17 -32 34 -45 20 -58 22
-94 13z"/>
<path d="M2805 466 c-120 -54 -103 -229 25 -251 48 -8 103 16 134 57 24 34 26
106 3 142 -35 53 -108 77 -162 52z m118 -57 c56 -61 13 -169 -68 -169 -74 0
-124 108 -77 167 39 50 100 51 145 2z"/>
<path d="M3110 469 c-38 -8 -60 -32 -60 -64 0 -34 21 -54 79 -72 66 -22 83
-43 57 -72 -23 -25 -56 -27 -98 -5 -22 12 -33 13 -42 4 -14 -14 3 -26 58 -41
71 -20 130 15 124 74 -3 33 -23 48 -105 77 -41 15 -50 40 -23 62 27 22 46 22
82 4 18 -10 30 -11 34 -4 15 25 -52 49 -106 37z"/>
<path d="M3982 460 c-39 -24 -43 -25 -36 -5 4 10 0 15 -15 15 -20 0 -21 -5
-21 -125 0 -118 1 -125 20 -125 18 0 20 7 20 86 0 47 5 94 11 105 25 48 105
44 128 -7 6 -14 11 -61 11 -104 0 -64 3 -80 15 -80 12 0 15 18 15 99 0 89 -2
103 -22 126 -31 35 -83 42 -126 15z"/>
<path d="M4588 469 c-16 -6 -28 -15 -28 -20 0 -5 -4 -9 -10 -9 -5 0 -10 7 -10
15 0 8 -9 15 -20 15 -19 0 -20 -7 -20 -125 0 -118 1 -125 20 -125 18 0 20 7
20 88 0 81 2 90 25 112 33 31 82 31 107 1 14 -19 18 -41 18 -112 0 -78 2 -89
18 -89 15 0 17 10 14 104 -3 92 -6 106 -26 125 -27 25 -72 34 -108 20z"/>
<path d="M4880 469 c-63 -25 -98 -95 -80 -159 13 -45 56 -88 96 -96 55 -10
137 27 119 55 -3 6 -18 3 -38 -9 -37 -23 -56 -25 -92 -8 -59 27 -72 109 -26
160 34 38 87 44 121 13 15 -13 24 -15 31 -8 16 16 2 33 -37 49 -38 16 -59 17
-94 3z"/>
<path d="M5283 465 c-50 -21 -75 -69 -70 -133 4 -60 30 -95 84 -113 40 -13 82
-7 118 17 20 13 23 20 14 30 -9 11 -15 10 -36 -6 -45 -35 -113 -19 -139 31 -8
16 -14 30 -14 34 0 3 48 5 106 5 l106 0 -7 38 c-9 51 -31 81 -70 98 -42 17
-51 17 -92 -1z m98 -44 c50 -51 41 -61 -55 -61 -75 0 -84 2 -79 18 10 37 50
71 86 72 10 0 32 -13 48 -29z"/>
<path d="M5620 469 c-14 -5 -35 -22 -47 -37 l-23 -27 0 33 c0 22 -5 32 -15 32
-13 0 -15 -21 -15 -125 0 -104 2 -125 15 -125 12 0 15 13 15 60 0 85 20 127
70 148 55 23 55 61 0 41z"/>
<path d="M5771 463 c-71 -37 -99 -118 -63 -182 66 -120 247 -72 244 65 -1 99
-98 161 -181 117z m122 -54 c32 -34 35 -77 10 -120 -50 -84 -173 -45 -173 55
1 96 98 135 163 65z"/>
<path d="M1880 467 c0 -2 24 -59 53 -127 33 -75 60 -124 69 -126 23 -3 132
249 110 254 -19 5 -24 -4 -69 -116 -20 -51 -39 -89 -43 -85 -4 5 -24 52 -44
106 -30 75 -43 97 -57 97 -11 0 -19 -1 -19 -3z"/>
<path d="M2200 345 c0 -104 2 -125 15 -125 13 0 15 21 15 125 0 104 -2 125
-15 125 -13 0 -15 -21 -15 -125z"/>
<path d="M2610 345 c0 -112 2 -125 18 -125 15 0 17 13 18 125 0 114 -1 125
-18 125 -16 0 -18 -11 -18 -125z"/>
<path d="M3780 345 c0 -118 1 -125 20 -125 19 0 20 7 20 125 0 118 -1 125 -20
125 -19 0 -20 -7 -20 -125z"/>
<path d="M4238 463 c-19 -5 -24 -18 -10 -27 4 -3 25 -1 46 4 49 11 90 -4 105
-37 6 -14 9 -28 6 -31 -3 -3 -33 -4 -68 -3 -51 2 -68 -2 -90 -19 -29 -23 -36
-65 -17 -100 21 -40 121 -49 151 -14 15 18 29 18 29 -1 0 -8 7 -15 15 -15 12
0 15 17 15 91 0 131 -20 159 -110 158 -30 -1 -63 -3 -72 -6z m126 -123 c34
-13 34 -44 0 -75 -34 -31 -86 -33 -114 -5 -27 27 -25 44 6 69 29 23 68 27 108
11z"/>
<path d="M5100 345 c0 -104 2 -125 15 -125 13 0 15 21 15 125 0 104 -2 125
-15 125 -13 0 -15 -21 -15 -125z"/>
<path d="M6040 450 c-23 -23 -26 -58 -7 -83 6 -9 36 -25 66 -34 66 -22 83 -43
57 -72 -23 -25 -56 -27 -98 -5 -22 12 -33 13 -42 4 -14 -14 3 -26 58 -41 71
-20 130 15 124 74 -3 33 -23 48 -105 77 -42 16 -50 40 -22 63 23 18 70 16 96
-5 7 -6 14 -5 19 3 23 38 -110 55 -146 19z"/>
</g>
</svg>
