<?xml version="1.0" standalone="no"?>
<!DOCTYPE svg PUBLIC "-//W3C//DTD SVG 20010904//EN"
 "http://www.w3.org/TR/2001/REC-SVG-20010904/DTD/svg10.dtd">
<svg version="1.0" xmlns="http://www.w3.org/2000/svg"
 width="641.000000pt" height="254.000000pt" viewBox="0 0 641.000000 254.000000"
 preserveAspectRatio="xMidYMid meet">
<g transform="translate(0.000000,254.000000) scale(0.100000,-0.100000)" fill="#ffffff" stroke="none">
<path d="M395 2302 c-68 -33 -127 -92 -159 -161 -21 -45 -21 -55 -21 -596 0 -541 0 -551 21 -596 32 -69 91 -128 159 -161 l60 -28 648 0 647 0 0 660 c0 644 0 661 -21 715 -28 74 -100 146 -174 174 -54 20 -73 21 -578 21 l-522 0 -60 -28z m1111 -168 c15 -11 37 -33 48 -48 21 -27 21 -37 21 -589 l0 -562 -190 0 -190 0 0 365 0 365 158 3 157 3 0 99 0 100 -425 0 -425 0 0 -100 0 -100 155 0 155 0 0 -371 0 -370 -242 3 c-238 3 -244 3 -277 27 -61 44 -61 40 -61 587 0 433 2 500 16 530 40 84 42 84 596 81 464 -2 477 -3 504 -23z"/>
<path d="M2242 1720 c-82 -11 -192 -48 -192 -64 0 -16 41 -139 49 -148 3 -3 38 2 76 12 136 36 256 17 288 -47 16 -31 32 -93 23 -93 -2 0 -35 7 -73 16 -90 21 -223 14 -290 -16 -98 -43 -143 -112 -143 -220 0 -159 115 -251 296 -237 73 5 114 21 171 63 17 13 33 24 35 24 2 0 3 -17 3 -37 l0 -38 103 0 103 0 0 270 c-1 209 -4 281 -15 320 -28 92 -91 155 -181 180 -67 19 -176 25 -253 15z m203 -454 c36 -10 40 -15 43 -46 6 -80 -73 -150 -170 -150 -54 0 -102 20 -118 49 -13 26 -13 77 1 103 26 49 151 72 244 44z"/>
<path d="M3288 1720 c-43 -13 -95 -48 -123 -83 l-25 -32 0 58 0 57 -110 0 -110 0 0 -395 0 -395 110 0 110 0 0 253 c0 232 2 254 20 284 25 41 68 63 125 63 37 0 52 -6 82 -33 35 -32 36 -36 44 -128 5 -52 8 -170 8 -264 l-1 -170 107 -3 106 -3 -3 313 c-3 299 -4 315 -25 353 -30 56 -80 101 -132 120 -46 16 -138 19 -183 5z"/>
<path d="M4228 1720 c-43 -13 -95 -48 -123 -83 l-25 -32 0 58 0 57 -110 0 -110 0 0 -395 0 -396 108 3 107 3 5 255 c4 184 9 261 18 278 21 37 72 62 125 62 40 0 53 -5 82 -32 48 -45 56 -96 54 -353 l-1 -210 107 -3 106 -3 -3 313 c-3 299 -4 315 -25 353 -30 56 -80 101 -132 120 -46 16 -138 19 -183 5z"/>
<path d="M5033 1715 c-178 -55 -287 -230 -270 -433 12 -147 88 -262 215 -324 64 -32 71 -33 192 -33 116 0 129 2 180 27 55 28 130 89 130 107 0 5 -27 33 -60 61 l-61 53 -22 -20 c-64 -59 -173 -79 -249 -45 -48 21 -92 70 -103 114 l-7 28 273 2 274 3 -2 73 c-5 194 -103 342 -257 387 -60 18 -176 18 -233 0z m157 -165 c58 -16 120 -93 120 -148 0 -15 -17 -17 -165 -17 -148 0 -165 2 -165 17 0 50 63 133 114 147 42 12 55 13 96 1z"/>
<path d="M6069 1707 c-39 -21 -77 -61 -116 -123 -10 -16 -12 -6 -12 59 l-1 77 -110 0 -110 0 0 -395 0 -395 110 0 110 0 0 168 c0 191 14 266 59 322 38 47 79 69 140 77 l51 6 0 113 0 114 -38 0 c-22 0 -59 -10 -83 -23z"/>
</g>
</svg>
